<svg width="500" height="300" xmlns="http://www.w3.org/2000/svg">
  <!-- Penguin -->
  <polygon points="150,50 110,100 190,100" fill="#000" />
  <polygon points="100,100 200,100 150,200" fill="#000" />
  <polygon points="110,100 100,100 110,200 150,200" fill="#fff" />
  <polygon points="190,100 200,100 190,200 150,200" fill="#fff" />
  <circle cx="130" cy="140" r="10" fill="#000" />
  <circle cx="170" cy="140" r="10" fill="#000" />

  <!-- Tortoise -->
  <ellipse cx="350" cy="170" rx="50" ry="40" fill="#4B5320" />
  <ellipse cx="350" cy="170" rx="40" ry="30" fill="#6B8E23" />
  <rect x="340" y="150" width="20" height="40" fill="#6B8E23" />
  <circle cx="330" cy="140" r="5" fill="#000" />
  <circle cx="370" cy="140" r="5" fill="#000" />
  <circle cx="320" cy="185" r="15" fill="#4B5320" />
  <circle cx="380" cy="185" r="15" fill="#4B5320" />
  <circle cx="295" cy="190" r="10" fill="#4B5320" />
  <circle cx="405" cy="190" r="10" fill="#4B5320" />

  <svg width="200" height="200" viewBox="0 0 200 200" xmlns="http://www.w3.org/2000/svg" xmlns:xlink="http://www.w3.org/1999/xlink">
  <style>
    .outer-cube, .inner-cube {
      stroke: black;
      stroke-width: 2;
      fill: none;
      animation: rotate 4s linear infinite;
    }
    .inner-cube {
      stroke: #888;
      animation-direction: reverse;
    }
    @keyframes rotate {
      from { transform: rotate(0); }
      to { transform: rotate(360deg); }
    }
  </style>
  <g class="outer-cube">
    <rect x="50" y="50" width="100" height="100" />
    <line x1="50" y1="50" x2="75" y2="25" />
    <line x1="150" y1="50" x2="175" y2="25" />
    <line x1="150" y1="150" x2="175" y2="125" />
    <line x1="50" y1="150" x2="75" y2="125" />
  </g>
  <g class="inner-cube" transform="translate(25, 25)">
    <rect x="50" y="50" width="100" height="100" />
    <line x1="50" y1="50" x2="75" y2="25" />
    <line x1="150" y1="50" x2="175" y2="25" />
    <line x1="150" y1="150" x2="175" y2="125" />
    <line x1="50" y1="150" x2="75" y2="125" />
  </g>
</svg>

</svg>
