<svg width="500" height="300" xmlns="http://www.w3.org/2000/svg">
  <!-- Penguin -->
  <polygon points="150,50 110,100 190,100" fill="#000" />
  <polygon points="100,100 200,100 150,200" fill="#000" />
  <polygon points="110,100 100,100 110,200 150,200" fill="#fff" />
  <polygon points="190,100 200,100 190,200 150,200" fill="#fff" />
  <circle cx="130" cy="140" r="10" fill="#000" />
  <circle cx="170" cy="140" r="10" fill="#000" />

  <!-- Tortoise -->
  <ellipse cx="350" cy="170" rx="50" ry="40" fill="#4B5320" />
  <ellipse cx="350" cy="170" rx="40" ry="30" fill="#6B8E23" />
  <rect x="340" y="150" width="20" height="40" fill="#6B8E23" />
  <circle cx="330" cy="140" r="5" fill="#000" />
  <circle cx="370" cy="140" r="5" fill="#000" />
  <circle cx="320" cy="185" r="15" fill="#4B5320" />
  <circle cx="380" cy="185" r="15" fill="#4B5320" />
  <circle cx="295" cy="190" r="10" fill="#4B5320" />
  <circle cx="405" cy="190" r="10" fill="#4B5320" />
</svg>
